<svg width="227" height="34" viewBox="0 0 227 34" fill="none" xmlns="http://www.w3.org/2000/svg">
<path d="M1.7477 30.9749L0.443237 2.24917C19.0822 2.24917 28.4016 7.0368 28.4016 16.612C28.4016 26.1873 19.517 30.9749 1.7477 30.9749ZM10.1196 10.8669L11.2294 18.957H11.3657C16.0514 18.957 18.3942 17.6152 18.3942 14.9315C18.3942 12.2218 15.636 10.8669 10.1196 10.8669Z" fill="#FFE600"/>
<path d="M49.9545 11.7072C53.0307 11.134 54.5688 10.3328 54.5688 9.30359V9.24497C54.5429 8.6457 54.0302 8.34606 53.0307 8.34606C52.239 8.34606 51.1616 8.52845 49.7988 8.89322L49.9545 11.7072ZM50.9085 23.432C55.9058 23.2235 58.4173 22.4289 58.4433 21.0479C58.4433 19.7582 56.1329 19.1133 51.5121 19.1133H50.6944L50.9085 23.432ZM41.0958 30.9358L41.8552 4.51596C46.9562 2.43155 51.246 1.38935 54.7246 1.38935C57.9306 1.38935 60.4422 2.28174 62.2593 4.06651C64.0635 5.85129 64.9656 7.57744 64.9656 9.24497C64.9656 11.0688 63.9013 12.8275 61.7726 14.5211C66.2766 15.9151 68.5286 18.0842 68.5286 21.0284C68.5286 22.2139 68.1651 23.5232 67.4383 24.9562C65.3355 29.112 58.9171 31.1899 48.1828 31.1899C46.0022 31.1899 43.6399 31.1052 41.0958 30.9358Z" fill="#FFE600"/>
<path d="M79.8794 2.34688L81.9626 30.0174L69.5215 32.3624L70.0472 3.14807L79.8794 2.34688Z" fill="#FFE600"/>
<path d="M84.3574 1.81926L95.3967 2.4055L93.6639 20.4617L102.094 20.1295L99.6216 32.0888L82.9556 30.9358L84.3574 1.81926Z" fill="#FFE600"/>
<path d="M103.554 1.81926L114.594 2.4055L112.861 20.4617L121.291 20.1295L118.819 32.0888L102.153 30.9358L103.554 1.81926Z" fill="#FFE600"/>
<path d="M132.642 2.34688L134.725 30.0174L122.284 32.3624L122.81 3.14807L132.642 2.34688Z" fill="#FFE600"/>
<path d="M151.294 30.9749C146.738 30.9749 142.838 29.581 139.593 26.7931C136.361 23.9922 134.745 20.5985 134.745 16.612C134.745 12.6256 136.361 9.23845 139.593 6.45056C142.838 3.64963 146.738 2.24917 151.294 2.24917C155.837 2.24917 159.724 3.64963 162.956 6.45056C166.201 9.23845 167.824 12.6256 167.824 16.612C167.824 20.5985 166.201 23.9922 162.956 26.7931C159.724 29.581 155.837 30.9749 151.294 30.9749ZM150.204 21.0675C151.904 21.0675 153.345 20.5594 154.526 19.5432C155.72 18.5141 156.317 17.296 156.317 15.889C156.317 14.482 155.72 13.2705 154.526 12.2543C153.345 11.2252 151.904 10.7106 150.204 10.7106C148.49 10.7106 147.037 11.2252 145.842 12.2543C144.661 13.2705 144.071 14.482 144.071 15.889C144.071 17.296 144.661 18.5141 145.842 19.5432C147.037 20.5594 148.49 21.0675 150.204 21.0675Z" fill="#FFE600"/>
<path d="M179.739 19.6996L181.219 28.3173L170.121 31.1508L168.038 4.06651L178.805 2.19055L187.469 13.7004L187.585 2.30779L201.136 0.920359L196.639 30.8968L187.975 32.1669L179.739 19.6996Z" fill="#FFE600"/>
<path d="M206.841 20.0318C202.752 19.4716 200.708 16.9573 200.708 12.4888C200.708 11.9156 200.747 11.3098 200.825 10.6715C201.409 5.08266 207.84 1.78669 220.119 0.783569L222.027 11.0428C221.365 11.0297 220.742 11.0232 220.158 11.0232C215.459 11.0232 212.987 11.4792 212.74 12.3911C212.714 12.4563 212.701 12.5214 212.701 12.5865C212.701 13.5115 214.921 14.0782 219.36 14.2866C223.968 14.5081 226.272 17.5044 226.272 23.2756V23.686C226.155 29.7438 219.477 32.9747 206.237 33.3785L202.246 22.6308C205.296 22.9695 207.704 23.1389 209.469 23.1389C211.637 23.1389 212.844 22.8848 213.091 22.3767C213.117 22.2986 213.13 22.2204 213.13 22.1422C213.13 21.3345 211.033 20.631 206.841 20.0318Z" fill="#FFE600"/>
</svg>
