<svg width="300" height="61" viewBox="0 0 300 61" fill="none" xmlns="http://www.w3.org/2000/svg">
<path d="M0.893555 38.2709V23.164C0.896927 21.2388 1.66425 19.3936 3.02701 18.0338C4.38977 16.6738 6.23654 15.9104 8.16175 15.9111C8.28655 15.9111 8.41643 15.9111 8.53866 15.9111C10.5739 15.9199 12.5294 15.12 13.975 13.6872C15.4206 12.2545 16.2381 10.3063 16.2474 8.27105C16.2474 8.20484 16.2474 8.14117 16.2474 8.07496V8.05968C16.2511 6.62212 16.6809 5.21794 17.4827 4.0248C18.2846 2.83167 19.4224 1.90322 20.7521 1.35694C22.0818 0.810658 23.5438 0.671106 24.9528 0.955949C26.3618 1.24079 27.6547 1.93723 28.6677 2.95711C29.681 3.977 30.3687 5.27449 30.6442 6.68542C30.9196 8.09633 30.7704 9.55724 30.2152 10.8833C29.6601 12.2093 28.724 13.3409 27.5255 14.1348C26.3271 14.9287 24.9201 15.3492 23.4826 15.3432C23.3553 15.3432 23.228 15.3432 23.1056 15.3432C21.0725 15.3432 19.1225 16.1497 17.6836 17.5859C16.2445 19.022 15.4341 20.9705 15.4299 23.0036C15.4299 23.0595 15.4299 23.1156 15.4299 23.1742V38.2709C15.3944 40.1746 14.6131 41.9884 13.2541 43.3221C11.8952 44.6559 10.0671 45.403 8.16304 45.403C6.25894 45.403 4.43089 44.6559 3.07195 43.3221C1.71302 41.9884 0.931732 40.1746 0.896088 38.2709H0.893555Z" fill="#32E388"/>
<path d="M31.54 23.2479C31.5427 21.8101 31.9717 20.4054 32.7729 19.2117C33.5741 18.0178 34.7115 17.0885 36.0413 16.5416C37.3708 15.9945 38.8329 15.8542 40.2423 16.1384C41.6516 16.4226 42.945 17.1187 43.9587 18.1384C44.9723 19.1581 45.6605 20.4555 45.9365 21.8667C46.2124 23.2777 46.0633 24.739 45.5083 26.0652C44.9534 27.3917 44.0173 28.5235 42.8188 29.3175C41.6202 30.1116 40.213 30.5324 38.7752 30.5263C36.8514 30.5182 35.0093 29.7474 33.6529 28.3829C32.2965 27.0184 31.5368 25.1717 31.54 23.2479Z" fill="#32E388"/>
<path d="M31.54 7.91192C31.5427 6.47417 31.9717 5.06948 32.7729 3.87566C33.5741 2.68186 34.7115 1.75262 36.0413 1.20555C37.3708 0.658495 38.8329 0.51822 40.2423 0.802487C41.6516 1.08675 42.945 1.78278 43.9587 2.80248C44.9723 3.82215 45.6605 5.11965 45.9365 6.5307C46.2124 7.94176 46.0633 9.40294 45.5083 10.7293C44.9534 12.0557 44.0173 13.1875 42.8188 13.9817C41.6202 14.7757 40.213 15.1964 38.7752 15.1903C36.8514 15.1823 35.0093 14.4115 33.6529 13.047C32.2965 11.6825 31.5368 9.83582 31.54 7.91192Z" fill="#D9E3E3"/>
<path d="M16.2119 38.6275C16.2149 37.1895 16.6445 35.785 17.4463 34.5915C18.2481 33.3978 19.3861 32.4689 20.7159 31.9225C22.046 31.3759 23.5081 31.2364 24.9176 31.5213C26.3269 31.8064 27.62 32.503 28.6332 33.5233C29.6463 34.5436 30.334 35.8416 30.609 37.2529C30.8841 38.6642 30.7342 40.1255 30.1784 41.4516C29.6226 42.7777 28.6857 43.909 27.4866 44.7024C26.2875 45.4958 24.8798 45.9154 23.442 45.9084C21.5183 45.8997 19.6767 45.1282 18.3212 43.7631C16.9658 42.3982 16.2072 40.5512 16.2119 38.6275Z" fill="#6B32E3"/>
<path d="M61.3874 23.5257V38.6326C61.3839 40.5573 60.6171 42.4022 59.2548 43.762C57.8927 45.1218 56.0465 45.8855 54.1216 45.8855C53.9969 45.8855 53.867 45.8855 53.7448 45.8855C51.7096 45.8767 49.754 46.6767 48.3085 48.1094C46.8628 49.5421 46.0454 51.4903 46.0361 53.5255C46.0361 53.5918 46.0361 53.6554 46.0361 53.7217V53.7369C46.0324 55.1745 45.6026 56.5787 44.8008 57.7717C43.9989 58.9649 42.8611 59.8935 41.5314 60.4397C40.2017 60.986 38.7397 61.1255 37.3307 60.8406C35.9217 60.5559 34.6287 59.8594 33.6156 58.8394C32.6025 57.8196 31.9148 56.5221 31.6393 55.1112C31.3639 53.7003 31.5131 52.2394 32.0683 50.9133C32.6234 49.5873 33.5593 48.4557 34.7578 47.6618C35.9563 46.8679 37.3633 46.4474 38.8009 46.4535C38.9282 46.4535 39.0555 46.4535 39.1778 46.4535C41.2092 46.4535 43.1575 45.6483 44.5963 44.2143C46.0351 42.7803 46.8468 40.8344 46.8534 38.8032C46.8534 38.7473 46.8534 38.6912 46.8534 38.6326V23.5257C46.8891 21.622 47.6704 19.8082 49.0294 18.4745C50.3882 17.1408 52.2164 16.3936 54.1205 16.3936C56.0246 16.3936 57.8525 17.1408 59.2115 18.4745C60.5705 19.8082 61.3517 21.622 61.3874 23.5257Z" fill="#32E388"/>
<path d="M30.7408 53.7471C30.7383 55.1849 30.3092 56.5896 29.5079 57.7835C28.7067 58.9772 27.5693 59.9065 26.2396 60.4536C24.91 61.0005 23.4479 61.1408 22.0386 60.8566C20.6292 60.5724 19.3359 59.8762 18.3223 58.8566C17.3085 57.8369 16.6203 56.5394 16.3445 55.1283C16.0686 53.7173 16.2175 52.2562 16.7725 50.9298C17.3275 49.6035 18.2636 48.4717 19.4622 47.6775C20.6606 46.8834 22.0678 46.4628 23.5056 46.4687C25.4295 46.4769 27.2717 47.2477 28.6281 48.6121C29.9843 49.9766 30.7442 51.8233 30.7408 53.7471Z" fill="#6B32E3"/>
<path d="M38.7221 45.8933C36.979 45.8837 35.2958 45.2564 33.9715 44.1229C32.6472 42.9894 31.7679 41.4232 31.4895 39.7023C31.3876 39.0606 31.4131 38.401 31.3469 37.7516C31.1795 35.8615 30.3121 34.1023 28.9148 32.8187C27.4423 31.4147 25.4762 30.6472 23.442 30.682C22.1442 30.6634 20.8743 30.301 19.7622 29.6315C18.6501 28.9622 17.7354 28.0099 17.1115 26.8716C16.4874 25.7335 16.1764 24.4502 16.2101 23.1525C16.2438 21.8551 16.6212 20.5896 17.3033 19.4853C17.9856 18.3811 18.9485 17.4775 20.094 16.8668C21.2393 16.2561 22.5261 15.9601 23.8233 16.0088C25.1203 16.0577 26.3812 16.4497 27.4775 17.1448C28.5737 17.8397 29.466 18.8132 30.0633 19.9656C30.6104 21.0407 30.8931 22.2306 30.8885 23.4368C30.9089 25.2634 31.567 27.0256 32.7492 28.4183C33.9314 29.8112 35.5631 30.7469 37.3621 31.0641C37.8411 31.1442 38.3257 31.185 38.8112 31.1863C40.6489 31.2052 42.4127 31.9125 43.7541 33.1687C45.0955 34.4247 45.9171 36.1382 46.0566 37.9707C46.1961 39.8031 45.6434 41.6212 44.5074 43.0659C43.3715 44.5106 41.7351 45.4768 39.9215 45.7735C39.5192 45.8398 39.1142 45.8551 38.7221 45.8933Z" fill="#D9E3E3"/>
<path d="M82.455 41.2614H87.53V19.7285H82.455V41.2614ZM85.0066 16.6723C86.6187 16.6723 87.9364 15.4387 87.9364 13.9247C87.9364 12.3966 86.6187 11.163 85.0066 11.163C83.3803 11.163 82.0626 12.3966 82.0626 13.9247C82.0626 15.4387 83.3803 16.6723 85.0066 16.6723ZM112.193 49.3363V19.7285H107.202V23.2893H106.907C106.136 21.7331 104.552 19.448 100.753 19.448C95.7764 19.448 91.8652 23.3454 91.8652 30.523C91.8652 37.6165 95.6644 41.6399 100.739 41.6399C104.44 41.6399 106.108 39.4389 106.907 37.8689H107.118V49.3363H112.193ZM107.216 30.4949C107.216 34.6725 105.393 37.4764 102.155 37.4764C98.8046 37.4764 97.0382 34.5324 97.0382 30.4949C97.0382 26.4855 98.7765 23.6117 102.155 23.6117C105.421 23.6117 107.216 26.3174 107.216 30.4949ZM120.548 41.5698C122.202 41.5698 123.618 40.196 123.632 38.4857C123.618 36.8035 122.202 35.4295 120.548 35.4295C118.837 35.4295 117.45 36.8035 117.464 38.4857C117.45 40.196 118.837 41.5698 120.548 41.5698ZM135.068 41.696C138.446 41.696 140.465 40.1118 141.39 38.3034H141.558V41.2614H146.437V26.85C146.437 21.1584 141.797 19.448 137.689 19.448C133.161 19.448 129.685 21.4668 128.563 25.3921L133.301 26.0651C133.806 24.5931 135.236 23.3313 137.717 23.3313C140.072 23.3313 141.362 24.537 141.362 26.6538V26.738C141.362 28.1958 139.834 28.2659 136.035 28.6725C131.857 29.1211 127.862 30.3687 127.862 35.2193C127.862 39.453 130.96 41.696 135.068 41.696ZM136.386 37.9671C134.269 37.9671 132.755 36.9997 132.755 35.1352C132.755 33.1865 134.451 32.3735 136.722 32.0511C138.054 31.8688 140.717 31.5323 141.376 30.9997V33.5371C141.376 35.9343 139.442 37.9671 136.386 37.9671ZM160.932 41.682C166.343 41.682 169.793 38.4717 170.156 33.9016H165.307C164.871 36.2146 163.203 37.5465 160.975 37.5465C157.806 37.5465 155.76 34.8969 155.76 30.4949C155.76 26.1491 157.848 23.5416 160.975 23.5416C163.414 23.5416 164.914 25.1117 165.307 27.1865H170.156C169.806 22.5182 166.161 19.448 160.904 19.448C154.596 19.448 150.615 24.0042 150.615 30.5791C150.615 37.0979 154.498 41.682 160.932 41.682ZM180.521 41.696C183.899 41.696 185.917 40.1118 186.844 38.3034H187.011V41.2614H191.89V26.85C191.89 21.1584 187.25 19.448 183.143 19.448C178.614 19.448 175.137 21.4668 174.015 25.3921L178.754 26.0651C179.259 24.5931 180.688 23.3313 183.171 23.3313C185.524 23.3313 186.816 24.537 186.816 26.6538V26.738C186.816 28.1958 185.287 28.2659 181.488 28.6725C177.31 29.1211 173.314 30.3687 173.314 35.2193C173.314 39.453 176.413 41.696 180.521 41.696ZM181.838 37.9671C179.721 37.9671 178.208 36.9997 178.208 35.1352C178.208 33.1865 179.904 32.3735 182.175 32.0511C183.506 31.8688 186.169 31.5323 186.829 30.9997V33.5371C186.829 35.9343 184.894 37.9671 181.838 37.9671ZM204.983 41.6399C208.684 41.6399 210.352 39.4389 211.152 37.8689H211.459V41.2614H216.451V12.5509H211.362V23.2893H211.152C210.38 21.7331 208.796 19.448 204.998 19.448C200.021 19.448 196.109 23.3454 196.109 30.523C196.109 37.6165 199.909 41.6399 204.983 41.6399ZM206.399 37.4764C203.049 37.4764 201.282 34.5324 201.282 30.4949C201.282 26.4855 203.021 23.6117 206.399 23.6117C209.666 23.6117 211.459 26.3174 211.459 30.4949C211.459 34.6725 209.638 37.4764 206.399 37.4764ZM231.392 41.682C236.41 41.682 239.858 39.2287 240.756 35.4856L236.017 34.953C235.331 36.7753 233.648 37.7287 231.461 37.7287C228.181 37.7287 226.008 35.5698 225.965 31.8828H240.967V30.3268C240.967 22.7705 236.423 19.448 231.125 19.448C224.957 19.448 220.934 23.9762 220.934 30.621C220.934 37.3782 224.901 41.682 231.392 41.682ZM225.98 28.4623C226.135 25.7145 228.166 23.4013 231.194 23.4013C234.111 23.4013 236.073 25.5323 236.101 28.4623H225.98ZM245.26 41.2614H250.334V28.1679C250.334 25.5183 252.101 23.7239 254.287 23.7239C256.432 23.7239 257.904 25.1678 257.904 27.3828V41.2614H262.881V27.8313C262.881 25.4061 264.325 23.7239 266.778 23.7239C268.824 23.7239 270.451 24.9294 270.451 27.593V41.2614H275.54V26.808C275.54 21.9996 272.764 19.448 268.811 19.448C265.684 19.448 263.302 20.9901 262.348 23.3874H262.125C261.297 20.9482 259.208 19.448 256.307 19.448C253.418 19.448 251.26 20.934 250.362 23.3874H250.11V19.7285H245.26V41.2614ZM283.072 49.3363C287.025 49.3363 289.309 47.3035 290.53 43.8689L299.179 19.7565L293.754 19.7285L288.777 35.9904H288.553L283.59 19.7285H278.207L286.015 41.71L285.581 42.8736C284.641 45.3269 283.156 45.4952 280.94 44.8502L279.763 48.8035C280.45 49.084 281.684 49.3363 283.072 49.3363Z" fill="black"/>
</svg>
