<svg width="172" height="29" viewBox="0 0 172 29" fill="none" xmlns="http://www.w3.org/2000/svg">
<path d="M12.8125 10.3125L9.9375 11.0833C9.53472 10.2639 9.06944 9.70139 8.54167 9.39583C7.94444 9.03472 7.35417 8.85417 6.77083 8.85417C6.04861 8.82639 5.44444 8.96528 4.95833 9.27083C4.44444 9.57639 4.1875 9.99306 4.1875 10.5208C4.1875 10.7986 4.28472 11.0347 4.47917 11.2292C4.71528 11.4792 5.28472 11.7431 6.1875 12.0208L8.79167 12.7708C10.0139 13.1319 10.9375 13.6042 11.5625 14.1875C12.4931 15.0764 12.9583 16.1389 12.9583 17.375C12.9583 18.0278 12.7847 18.6736 12.4375 19.3125C12.0903 19.9514 11.6181 20.4653 11.0208 20.8542C10.0764 21.4931 8.70833 21.8125 6.91667 21.8125C4.72222 21.8125 3.07639 21.1389 1.97917 19.7917C1.35417 19.0139 0.902778 18.0417 0.625 16.875L3.5 16.1042C3.63889 16.8958 3.88889 17.5139 4.25 17.9583C4.54167 18.3472 4.9375 18.6458 5.4375 18.8542C5.95139 19.0625 6.47917 19.1667 7.02083 19.1667C8.02083 19.1667 8.79861 18.9514 9.35417 18.5208C9.75694 18.2292 9.95833 17.8194 9.95833 17.2917C9.95833 16.8611 9.80556 16.5139 9.5 16.25C9.18056 15.9722 8.73611 15.75 8.16667 15.5833L5.375 14.7708C4.11111 14.4236 3.15278 13.9583 2.5 13.375C1.63889 12.6528 1.20833 11.6806 1.20833 10.4583C1.20833 9.65278 1.4375 8.91667 1.89583 8.25C2.35417 7.58333 2.9375 7.09028 3.64583 6.77083C4.49306 6.38194 5.54861 6.1875 6.8125 6.1875C8.0625 6.21528 9.11111 6.45833 9.95833 6.91667C11.2639 7.625 12.2153 8.75694 12.8125 10.3125ZM25.0117 12.7708L22.3659 13.9167C22.2826 13.7639 22.2062 13.6389 22.1367 13.5417C21.6645 12.9028 20.977 12.5833 20.0742 12.5833C19.1853 12.5833 18.5048 12.9028 18.0326 13.5417C17.6298 14.0694 17.4145 14.8472 17.3867 15.875C17.4145 16.9028 17.6298 17.6806 18.0326 18.2083C18.4909 18.8333 19.1714 19.1458 20.0742 19.1458C20.9909 19.1458 21.6784 18.8333 22.1367 18.2083C22.2201 18.0833 22.2895 17.9653 22.3451 17.8542L25.0117 19C24.7617 19.4167 24.5534 19.7222 24.3867 19.9167C23.8728 20.5278 23.2339 21 22.4701 21.3333C21.7062 21.6667 20.9076 21.8194 20.0742 21.7917C18.2964 21.8333 16.8659 21.2083 15.7826 19.9167C14.8659 18.8194 14.4076 17.4722 14.4076 15.875C14.4076 14.2917 14.8659 12.9375 15.7826 11.8125C16.8242 10.5625 18.2548 9.9375 20.0742 9.9375C21.8937 9.9375 23.3312 10.5625 24.3867 11.8125C24.6506 12.1319 24.8589 12.4514 25.0117 12.7708ZM29.4922 13.5625L26.9089 12.3333C26.9227 12.3056 26.9575 12.2569 27.013 12.1875C27.0686 12.1042 27.1102 12.0417 27.138 12C28.1102 10.6389 29.5825 9.95833 31.5547 9.95833C33.763 9.95833 35.3116 10.7014 36.2005 12.1875C36.6033 12.8542 36.8047 13.6042 36.8047 14.4375V21.5H34.3255V19.5833C34.1172 20.1667 33.6519 20.6736 32.9297 21.1042C32.1658 21.5625 31.2908 21.7917 30.3047 21.7917C29.763 21.7917 29.2283 21.6736 28.7005 21.4375C28.1727 21.2014 27.7561 20.9028 27.4505 20.5417C26.8672 19.7361 26.5755 18.9514 26.5755 18.1875C26.5755 17.5903 26.7422 17.0208 27.0755 16.4792C27.4089 15.9236 27.8464 15.4861 28.388 15.1667C28.6241 15.0417 28.8464 14.9375 29.0547 14.8542C29.2769 14.7569 29.5269 14.6806 29.8047 14.625C30.0825 14.5556 30.2977 14.5069 30.4505 14.4792C30.6033 14.4514 30.8741 14.4097 31.263 14.3542C31.6519 14.2986 31.9366 14.2569 32.1172 14.2292L33.9297 13.9792C33.8186 13.5347 33.5408 13.1875 33.0964 12.9375C32.6519 12.6736 32.1172 12.5556 31.4922 12.5833C30.7005 12.5833 30.1102 12.8125 29.7214 13.2708C29.638 13.3681 29.5616 13.4653 29.4922 13.5625ZM33.9922 16.25L31.9089 16.6458C31.4922 16.7292 31.1797 16.7986 30.9714 16.8542C30.7769 16.8958 30.5339 16.9722 30.2422 17.0833C29.9505 17.1806 29.7352 17.3056 29.5964 17.4583C29.4714 17.6111 29.4019 17.7917 29.388 18C29.3602 18.3472 29.4852 18.6389 29.763 18.875C30.0547 19.1111 30.4227 19.2222 30.8672 19.2083C31.5339 19.1806 32.1519 19 32.7214 18.6667C33.3047 18.3333 33.6797 17.8542 33.8464 17.2292C33.9436 16.8681 33.9922 16.5417 33.9922 16.25ZM46.9635 6.5H49.8177V21.5H47.3177V20.8125C46.4427 21.4792 45.3594 21.8125 44.0677 21.8125C43.3177 21.8125 42.5955 21.6597 41.901 21.3542C41.2205 21.0347 40.651 20.5903 40.1927 20.0208C39.3177 18.9514 38.8802 17.5694 38.8802 15.875C38.8802 14.2083 39.3177 12.8264 40.1927 11.7292C41.151 10.5347 42.4913 9.9375 44.2135 9.9375C45.1997 9.9375 46.1163 10.1944 46.9635 10.7083V6.5ZM46.526 18.5C47.0538 17.9167 47.3177 17.0417 47.3177 15.875C47.3177 14.7361 47.0538 13.8611 46.526 13.25C46.0816 12.7222 45.4497 12.4583 44.6302 12.4583C43.6441 12.4583 42.9288 12.7917 42.4844 13.4583C42.0816 14.0556 41.8802 14.8611 41.8802 15.875C41.8802 16.9306 42.0677 17.7361 42.4427 18.2917C42.8872 18.9583 43.5816 19.2917 44.526 19.2917C45.3733 19.2917 46.0399 19.0278 46.526 18.5ZM55.1654 16.6458C55.2626 17.2986 55.457 17.8194 55.7487 18.2083C56.2209 18.8472 56.9015 19.1667 57.7904 19.1667C58.6793 19.1667 59.3668 18.8472 59.8529 18.2083C59.8806 18.1667 59.9154 18.1111 59.957 18.0417C59.9987 17.9583 60.0334 17.8958 60.0612 17.8542L62.8737 19.0833C62.6931 19.3889 62.4709 19.6944 62.207 20C61.0404 21.2917 59.5681 21.8958 57.7904 21.8125C55.8737 21.7153 54.4362 21.0903 53.4779 19.9375C52.5195 18.7708 52.0612 17.4167 52.1029 15.875C52.1445 14.2083 52.6029 12.8542 53.4779 11.8125C54.5334 10.5625 55.9709 9.9375 57.7904 9.9375C59.6237 9.9375 61.0612 10.5625 62.1029 11.8125C63.0195 12.9097 63.4779 14.2639 63.4779 15.875C63.4779 16.0556 63.464 16.3125 63.4362 16.6458H55.1654ZM59.8529 13.5417C59.3806 12.9028 58.6931 12.5833 57.7904 12.5833C56.8876 12.5833 56.207 12.9028 55.7487 13.5417C55.5543 13.7917 55.4015 14.0972 55.2904 14.4583H60.2904C60.1793 14.1111 60.0334 13.8056 59.8529 13.5417ZM65.8229 18.6667H68.6563V21.5H65.8229V18.6667ZM81.6497 11.7292C82.5247 12.8264 82.9622 14.2083 82.9622 15.875C82.9622 17.5694 82.5247 18.9514 81.6497 20.0208C81.1914 20.5903 80.615 21.0347 79.9206 21.3542C79.24 21.6597 78.5247 21.8125 77.7747 21.8125C76.6636 21.8125 75.6984 21.5625 74.8789 21.0625V26.5H72.0247V10.25H74.5247V10.9583C75.4275 10.2778 76.4622 9.9375 77.6289 9.9375C79.3511 9.9375 80.6914 10.5347 81.6497 11.7292ZM79.3997 18.2917C79.7747 17.7361 79.9622 16.9306 79.9622 15.875C79.9622 14.8611 79.7609 14.0556 79.3581 13.4583C78.9136 12.7917 78.1984 12.4583 77.2122 12.4583C76.3928 12.4583 75.7609 12.7222 75.3164 13.25C74.7886 13.8611 74.5247 14.7361 74.5247 15.875C74.5247 17.0417 74.7886 17.9167 75.3164 18.5C75.8025 19.0278 76.4692 19.2917 77.3164 19.2917C78.2609 19.2917 78.9553 18.9583 79.3997 18.2917ZM90.9141 9.95833C91.5391 9.91667 92.1641 10.0208 92.7891 10.2708V12.8958C92.1363 12.6458 91.4141 12.5486 90.6224 12.6042C89.8585 12.6597 89.2613 12.9167 88.8307 13.375C88.3446 13.9028 88.1016 14.6111 88.1016 15.5V21.5H85.2474V10.25H87.7474V11.7917C88.0668 11.25 88.4696 10.8333 88.9557 10.5417C89.5113 10.1944 90.1641 10 90.9141 9.95833ZM99.5091 21.8125C97.6897 21.8125 96.2522 21.1875 95.1966 19.9375C94.2799 18.8264 93.8216 17.4722 93.8216 15.875C93.8216 14.2778 94.2799 12.9236 95.1966 11.8125C95.7105 11.2153 96.3494 10.7569 97.1133 10.4375C97.8772 10.1042 98.6758 9.9375 99.5091 9.9375C101.342 9.9375 102.78 10.5625 103.822 11.8125C104.752 12.9236 105.217 14.2778 105.217 15.875C105.217 17.4306 104.752 18.7847 103.822 19.9375C102.752 21.1875 101.315 21.8125 99.5091 21.8125ZM101.572 18.2083C102.002 17.6528 102.217 16.875 102.217 15.875C102.217 14.8611 102.002 14.0764 101.572 13.5208C101.113 12.8958 100.426 12.5833 99.5091 12.5833C98.5924 12.5833 97.9049 12.8958 97.4466 13.5208C97.0299 14.0625 96.8216 14.8472 96.8216 15.875C96.8216 16.8889 97.0299 17.6667 97.4466 18.2083C97.9188 18.8472 98.6063 19.1667 99.5091 19.1667C100.412 19.1667 101.099 18.8472 101.572 18.2083Z" fill="white"/>
<rect x="117" y="2.5" width="55" height="24" rx="6" fill="#EFEFEF"/>
<path d="M127.798 18.408H128.638V10.792H127.798V9.7H131.76C132.227 9.7 132.637 9.76533 132.992 9.896C133.356 10.0267 133.659 10.204 133.902 10.428C134.154 10.652 134.341 10.9227 134.462 11.24C134.593 11.548 134.658 11.884 134.658 12.248V12.416C134.658 12.6867 134.616 12.934 134.532 13.158C134.448 13.382 134.331 13.5827 134.182 13.76C134.033 13.9373 133.855 14.0913 133.65 14.222C133.454 14.3433 133.239 14.4367 133.006 14.502V14.67C133.473 14.8007 133.865 15.0527 134.182 15.426C134.499 15.79 134.658 16.238 134.658 16.77V16.938C134.658 17.302 134.593 17.6427 134.462 17.96C134.341 18.268 134.154 18.5387 133.902 18.772C133.659 18.996 133.356 19.1733 132.992 19.304C132.637 19.4347 132.227 19.5 131.76 19.5H127.798V18.408ZM129.814 18.408H131.676C132.227 18.408 132.675 18.2727 133.02 18.002C133.365 17.722 133.538 17.3393 133.538 16.854V16.77C133.538 16.266 133.375 15.8693 133.048 15.58C132.721 15.2813 132.278 15.132 131.718 15.132H129.814V18.408ZM129.814 14.04H131.718C132.278 14.04 132.721 13.8953 133.048 13.606C133.375 13.3167 133.538 12.92 133.538 12.416V12.332C133.538 11.856 133.365 11.4827 133.02 11.212C132.675 10.932 132.227 10.792 131.676 10.792H129.814V14.04ZM137.588 16.364C137.616 17.0547 137.831 17.61 138.232 18.03C138.634 18.45 139.194 18.66 139.912 18.66C140.239 18.66 140.524 18.6227 140.766 18.548C141.009 18.4733 141.214 18.3707 141.382 18.24C141.56 18.1093 141.7 17.96 141.802 17.792C141.914 17.6147 142.003 17.428 142.068 17.232L143.104 17.512C142.908 18.156 142.544 18.6833 142.012 19.094C141.49 19.4953 140.78 19.696 139.884 19.696C139.39 19.696 138.932 19.612 138.512 19.444C138.102 19.2667 137.747 19.0193 137.448 18.702C137.15 18.3847 136.916 18.0067 136.748 17.568C136.58 17.1293 136.496 16.644 136.496 16.112V15.776C136.496 15.2907 136.58 14.838 136.748 14.418C136.926 13.998 137.168 13.6387 137.476 13.34C137.784 13.032 138.144 12.794 138.554 12.626C138.974 12.4487 139.427 12.36 139.912 12.36C140.482 12.36 140.972 12.4673 141.382 12.682C141.802 12.8873 142.143 13.144 142.404 13.452C142.675 13.76 142.871 14.096 142.992 14.46C143.123 14.824 143.188 15.16 143.188 15.468V16.364H137.588ZM139.912 13.396C139.604 13.396 139.315 13.4473 139.044 13.55C138.783 13.6433 138.55 13.7787 138.344 13.956C138.148 14.1333 137.985 14.3433 137.854 14.586C137.733 14.8193 137.654 15.076 137.616 15.356H142.096C142.078 15.0573 142.003 14.7867 141.872 14.544C141.751 14.3013 141.588 14.096 141.382 13.928C141.186 13.76 140.958 13.6293 140.696 13.536C140.444 13.4427 140.183 13.396 139.912 13.396ZM145.125 12.556H147.309V9.7H148.401V12.556H151.089V13.564H148.401V18.072C148.401 18.352 148.527 18.492 148.779 18.492H150.753V19.5H148.387C148.069 19.5 147.808 19.3973 147.603 19.192C147.407 18.9867 147.309 18.7253 147.309 18.408V13.564H145.125V12.556ZM158.975 18.324H158.807C158.583 18.7907 158.27 19.136 157.869 19.36C157.477 19.584 157.061 19.696 156.623 19.696C156.165 19.696 155.741 19.6213 155.349 19.472C154.957 19.3133 154.611 19.0847 154.313 18.786C154.023 18.478 153.795 18.1047 153.627 17.666C153.459 17.2273 153.375 16.7187 153.375 16.14V15.916C153.375 15.3467 153.459 14.8427 153.627 14.404C153.795 13.9653 154.023 13.5967 154.313 13.298C154.611 12.99 154.957 12.7567 155.349 12.598C155.741 12.4393 156.156 12.36 156.595 12.36C157.071 12.36 157.5 12.4673 157.883 12.682C158.275 12.8873 158.583 13.2093 158.807 13.648H158.975V12.556H160.067V18.072C160.067 18.352 160.193 18.492 160.445 18.492H160.795V19.5H160.053C159.735 19.5 159.474 19.3973 159.269 19.192C159.073 18.9867 158.975 18.7253 158.975 18.408V18.324ZM156.735 18.66C157.061 18.66 157.36 18.5993 157.631 18.478C157.911 18.3567 158.149 18.184 158.345 17.96C158.541 17.736 158.695 17.47 158.807 17.162C158.919 16.8447 158.975 16.4947 158.975 16.112V15.944C158.975 15.5707 158.919 15.23 158.807 14.922C158.695 14.6047 158.536 14.334 158.331 14.11C158.135 13.886 157.897 13.7133 157.617 13.592C157.346 13.4613 157.052 13.396 156.735 13.396C156.408 13.396 156.109 13.4567 155.839 13.578C155.568 13.6993 155.33 13.872 155.125 14.096C154.929 14.3107 154.775 14.5767 154.663 14.894C154.551 15.202 154.495 15.5427 154.495 15.916V16.14C154.495 16.9333 154.7 17.554 155.111 18.002C155.531 18.4407 156.072 18.66 156.735 18.66Z" fill="#242526"/>
</svg>
