<svg width="133" height="50" viewBox="0 0 133 50" fill="none" xmlns="http://www.w3.org/2000/svg">
<rect y="9.05347" width="130" height="41" rx="20.5" transform="rotate(-3.99338 0 9.05347)" fill="#EFEFEF"/>
<path d="M30.3038 26.8989L35.9152 26.5071L35.9465 26.956C36.0199 28.9056 35.6184 30.5125 34.7418 31.7766C33.684 33.3165 32.1076 34.1596 30.0127 34.3059C29.0151 34.3755 28.0735 34.2595 27.1879 33.958C26.3138 33.6431 25.5834 33.1427 24.9967 32.4569C23.9147 31.317 23.2849 29.7446 23.1074 27.7396C23.0064 25.7543 23.4116 24.1096 24.323 22.8054C24.8095 22.0572 25.47 21.466 26.3043 21.0319C27.1386 20.5977 28.0483 20.3463 29.0334 20.2775C31.1033 20.133 32.7815 20.7489 34.068 22.1251C34.3267 22.4203 34.5551 22.7302 34.7532 23.0547L32.8693 24.0696C32.7298 23.8663 32.5978 23.6813 32.4734 23.5145C32.0787 23.0659 31.5858 22.737 30.9948 22.5276C30.4154 22.3049 29.8082 22.222 29.1731 22.2789C28.5363 22.3108 27.9402 22.4777 27.3849 22.7796C26.8287 23.0691 26.3863 23.4633 26.0578 23.9624C25.4926 24.8414 25.2511 26.0487 25.3332 27.5842C25.4652 29.1162 25.8721 30.2782 26.554 31.0701C26.9486 31.5187 27.4419 31.8539 28.0338 32.0758C28.6248 32.2851 29.2379 32.3613 29.873 32.3045C30.5098 32.2726 31.1001 32.1123 31.6438 31.8237C32.1991 31.5218 32.641 31.1213 32.9696 30.6222C33.3651 30.0057 33.601 29.2562 33.6772 28.3738L30.4226 28.601L30.3038 26.8989ZM39.6753 26.0003L37.6848 25.2183C37.708 25.1916 37.7415 25.1328 37.7852 25.0421C37.829 24.9513 37.8683 24.8859 37.9031 24.8459C38.6808 23.6012 39.9239 22.9192 41.6322 22.8C43.6523 22.659 45.0852 23.2606 45.9308 24.605C46.2835 25.1693 46.4842 25.8006 46.5329 26.4989L46.9756 32.8397L45.1239 32.969L44.9946 31.1173C44.7762 31.759 44.319 32.2984 43.6227 32.7355C42.9166 33.2108 42.1138 33.4673 41.2142 33.5051C40.7145 33.5274 40.22 33.4429 39.7304 33.2515C39.2409 33.0602 38.8464 32.7932 38.5468 32.4508C38.0251 31.798 37.7416 31.1474 37.6963 30.499C37.6589 29.9628 37.7675 29.454 38.022 28.9726C38.2758 28.4788 38.6295 28.0719 39.0834 27.752C39.2875 27.625 39.4805 27.5175 39.6623 27.4297C39.8557 27.3284 40.0937 27.2366 40.3761 27.1543C40.6711 27.071 40.8675 27.0135 40.9655 26.9816C41.0636 26.9497 41.3348 26.8869 41.7794 26.7932C42.2239 26.6995 42.4832 26.6438 42.5571 26.6261L44.3532 26.2376C44.2178 25.7333 43.928 25.3525 43.484 25.0953C43.0125 24.8025 42.4285 24.6929 41.7319 24.7666C40.884 24.8258 40.2663 25.132 39.8789 25.6853C39.7646 25.8437 39.6968 25.9487 39.6753 26.0003ZM44.5294 27.9545C44.1713 28.0296 43.4755 28.2035 42.442 28.4761C42.0972 28.5628 41.8325 28.6314 41.6481 28.6819C41.4637 28.7324 41.2311 28.8113 40.9504 28.9186C40.6688 29.0134 40.4567 29.1159 40.314 29.2261C40.1713 29.3363 40.0433 29.4768 39.9299 29.6477C39.829 29.8176 39.7797 30.009 39.7821 30.2218C39.7966 30.6093 39.9635 30.9359 40.2828 31.2019C40.6012 31.4553 40.9915 31.5721 41.4538 31.5524C42.1031 31.5196 42.7157 31.3202 43.2916 30.9542C43.8666 30.5757 44.233 30.0803 44.3907 29.4678C44.5259 29.0699 44.5721 28.5655 44.5294 27.9545ZM61.9022 22.3811C62.3657 22.7372 62.6905 23.1719 62.8767 23.6851C63.0753 24.1975 63.2012 24.8341 63.2543 25.5947L63.6787 31.6737L61.5651 31.8212L61.1407 25.7423C61.1111 25.3183 61.044 24.9847 60.9393 24.7414C60.847 24.4972 60.668 24.2654 60.402 24.0458C60.0268 23.6961 59.5648 23.5404 59.0161 23.5787C58.3927 23.6223 57.9095 23.8815 57.5668 24.3566C57.258 24.7791 57.1257 25.3083 57.1701 25.9443L57.1754 26.0191L57.5997 32.0981L55.4861 32.2456L55.0618 26.1667C55.0322 25.7427 54.965 25.409 54.8603 25.1657C54.7681 24.9216 54.589 24.6897 54.3231 24.4702C53.9478 24.1205 53.4858 23.9648 52.9372 24.0031C52.3137 24.0466 51.8306 24.3059 51.4878 24.7809C51.179 25.2035 51.0468 25.7327 51.0912 26.3687L51.5208 32.5224L49.4072 32.67L48.7021 22.5696L50.5725 22.439L50.6561 23.6361C51.3166 22.6878 52.2455 22.1718 53.4426 22.0883C54.278 22.0299 55.0716 22.269 55.8233 22.8055C56.0883 23.0125 56.3248 23.2591 56.5328 23.5453C56.8204 22.999 57.2286 22.5633 57.7572 22.2381C58.2975 21.8997 58.8856 21.7083 59.5215 21.6639C60.357 21.6056 61.1506 21.8446 61.9022 22.3811ZM67.3156 26.9276C67.4569 27.6947 67.7044 28.2788 68.0582 28.6802C68.6023 29.2938 69.3294 29.5688 70.2397 29.5052C71.1375 29.4426 71.8132 29.0696 72.2667 28.3864C72.2899 28.3597 72.3614 28.2169 72.4811 27.9579L74.6387 28.7095C74.4868 29.0459 74.3131 29.3399 74.1176 29.5916C73.6821 30.1734 73.1314 30.6316 72.4656 30.9663C71.8114 31.2876 71.1156 31.4615 70.3781 31.4879C68.7153 31.5414 67.4109 31.0748 66.4649 30.0883C65.5714 29.1357 65.087 27.9415 65.0119 26.5058C64.9431 24.9819 65.2568 23.732 65.953 22.7561C66.7983 21.5819 68.0252 20.9387 69.6338 20.8264C71.2424 20.7141 72.5406 21.181 73.5283 22.2273C74.3943 23.1442 74.8786 24.3384 74.9814 25.8098C74.9909 25.947 74.992 26.1411 74.9844 26.3923L67.3156 26.9276ZM69.7722 22.809C68.8602 22.8477 68.1783 23.221 67.7265 23.9292C67.4873 24.2717 67.3361 24.7083 67.2729 25.239L72.5663 24.8695C72.4299 24.3527 72.2195 23.9414 71.935 23.6354C71.3892 22.9969 70.6683 22.7214 69.7722 22.809ZM86.9252 19.9764C87.507 20.9507 87.8392 22.0302 87.9219 23.2148C88.0037 24.387 87.8247 25.5021 87.3848 26.5603C86.9218 27.6452 86.1945 28.5355 85.2031 29.2313C84.2241 29.9261 83.1547 30.314 81.9951 30.395L77.5808 30.7032L76.6406 17.2359L81.0549 16.9278C82.2146 16.8468 83.3274 17.0824 84.3935 17.6345C85.472 18.1857 86.3159 18.9663 86.9252 19.9764ZM85.4465 25.7183C85.746 24.9831 85.8542 24.1987 85.7709 23.365C85.71 22.4921 85.4934 21.7241 85.1214 21.0609C84.7092 20.3629 84.1388 19.82 83.41 19.4323C82.6813 19.0447 81.905 18.8733 81.0811 18.9183L78.9114 19.0698L79.5747 28.5716L81.7431 28.4015C82.5403 28.3333 83.279 28.0562 83.9593 27.5701C84.6396 27.084 85.1354 26.4668 85.4465 25.7183ZM91.8477 25.215C91.9889 25.982 92.2365 26.5662 92.5903 26.9676C93.1343 27.5812 93.8615 27.8562 94.7718 27.7926C95.6696 27.73 96.3453 27.357 96.7988 26.6738C96.822 26.6471 96.8935 26.5043 97.0132 26.2453L99.1708 26.9969C99.0189 27.3333 98.8452 27.6273 98.6497 27.879C98.2142 28.4608 97.6635 28.919 96.9977 29.2537C96.3435 29.575 95.6477 29.7489 94.9102 29.7753C93.2474 29.8287 91.943 29.3622 90.997 28.3757C90.1035 27.4231 89.6191 26.2289 89.544 24.7932C89.4752 23.2693 89.7889 22.0194 90.4851 21.0435C91.3304 19.8693 92.5573 19.2261 94.1659 19.1138C95.7745 19.0015 97.0727 19.4684 98.0604 20.5147C98.9264 21.4316 99.4107 22.6258 99.5135 24.0972C99.523 24.2344 99.5241 24.4285 99.5165 24.6797L91.8477 25.215ZM94.3043 21.0964C93.3923 21.135 92.7104 21.5084 92.2586 22.2166C92.0194 22.5591 91.8682 22.9957 91.805 23.5264L97.0984 23.1569C96.962 22.6401 96.7516 22.2288 96.4671 21.9228C95.9213 21.2843 95.2004 21.0088 94.3043 21.0964ZM107.418 18.4706L109.531 18.323L106.552 28.6807L104.438 28.8282L100.067 18.9837L102.181 18.8362L105.321 26.1352L107.418 18.4706Z" fill="#242526"/>
</svg>
