<svg width="16" height="16" viewBox="0 0 16 16" fill="none" xmlns="http://www.w3.org/2000/svg">
<path d="M13.6585 0.92888C14.049 0.53836 14.6822 0.53835 15.0727 0.92888C15.4632 1.3194 15.4632 1.95257 15.0727 2.34309L9.4158 8L15.0727 13.6568C15.4632 14.0474 15.4632 14.6805 15.0727 15.0711C14.6822 15.4616 14.049 15.4616 13.6585 15.0711L8.0016 9.4142L2.34481 15.071C2.3387 15.0771 2.33254 15.0831 2.32632 15.089C1.93455 15.4614 1.31501 15.4554 0.930593 15.071C0.637703 14.7781 0.564473 14.3487 0.710923 13.9876C0.759733 13.8672 0.832963 13.7544 0.930593 13.6568L6.5874 8L0.930593 2.34314C0.540063 1.95262 0.540063 1.31945 0.930593 0.92893C1.32111 0.5384 1.95428 0.5384 2.3448 0.92893L8.0016 6.5858L13.6585 0.92888Z" fill="#6F7381"/>
</svg>
